<?xml version="1.0" encoding="UTF-8" standalone="no"?>
<!DOCTYPE svg PUBLIC "-//W3C//DTD SVG 1.1//EN" "http://www.w3.org/Graphics/SVG/1.1/DTD/svg11.dtd">
<svg version="1.1" xmlns="http://www.w3.org/2000/svg" xmlns:xlink="http://www.w3.org/1999/xlink" preserveAspectRatio="xMidYMid meet" viewBox="0 0 240 393" width="240" height="393"><defs><path d="M7.51 259.82C7.64 263.87 9.4 267.68 12.07 270.73C15.32 274.44 21.18 281.18 26.73 287.78C33.58 295.92 39.04 305.15 42.65 315.15C50.84 337.83 76.79 386.07 149.32 386.09C154.84 386.09 160.29 384.93 165.33 382.69C186.07 373.5 236.62 342.17 226.89 257.86C226.89 257.86 206.39 256.59 187.64 302.73C184.11 311.41 176.18 317.61 166.85 318.41C146.9 320.13 111.85 314.17 79.75 263.54C72.82 252.6 62.76 243.86 50.57 239.46C41.35 236.14 30.78 234.67 22.07 239.75C19.15 243.77 7.09 246.6 7.51 259.82Z" id="j7TTDrk0jp"></path><path d="M187.64 302.73C184.11 311.41 176.19 317.61 166.85 318.41C151.39 319.75 126.87 316.46 101.67 291.35C101.08 291.66 96.36 294.09 95.77 294.4C95.77 294.4 121.96 334.66 156.41 348.61C158.52 349.46 160.84 349.59 163.05 349.08C168.15 347.91 177.91 344.87 187.4 337.47C191.1 334.59 196.42 338.03 195.41 342.61C193.71 350.34 190.94 360.12 186.47 370.09C208.67 353.1 234.04 319.78 226.89 257.86C219.04 266.83 206.39 256.59 187.64 302.73Z" id="b6iDG8Aqu"></path><path d="M53.43 213.94C53.43 213.94 17.02 206.59 4.9 238.3C3.79 241.19 5.14 244.46 7.88 245.9C7.88 245.9 7.88 245.9 7.88 245.9C9.75 246.87 11.96 246.85 13.79 245.82C19.61 242.58 31.29 234.24 43.47 243.84C43.47 243.84 63.77 257.59 79.96 278.63C86.33 286.9 93.08 294.86 100.67 302.03C114.43 315.02 135.65 331.95 157.16 337.08C158.8 337.47 160.51 337.33 162.1 336.76C169.88 333.93 192.91 322.48 205.82 283.05C207.7 277.3 210.87 271.98 215.3 267.86C218.42 264.96 222.36 262.38 226.94 261.64C229.67 261.19 231.48 258.57 230.74 255.91C229.3 250.73 225.67 243.53 216.56 241.25C216.56 241.25 215.52 222.43 197.96 215.42C191.42 214.26 158.75 208.48 99.94 198.07C81.97 187.49 66.47 192.78 53.43 213.94Z" id="c4NvGXcF"></path><linearGradient id="gradientd23uVSug8v" gradientUnits="userSpaceOnUse" x1="114.77" y1="271.6" x2="167.88" y2="-141.47"><stop style="stop-color: #cc5697;stop-opacity: 1" offset="0%"></stop><stop style="stop-color: #8e3979;stop-opacity: 1" offset="100%"></stop></linearGradient><path d="M210.82 272.82C214.17 268.45 219.76 262.81 226.94 261.64C229.67 261.19 231.48 258.57 230.74 255.91C229.3 250.73 225.67 243.53 216.56 241.25C216.56 241.25 215.52 222.43 197.96 215.42C196.88 215.23 191.51 214.28 181.85 212.57C172.78 230.22 167.74 240.03 166.73 241.99C180.36 244.51 183.16 254.08 183.5 260.26C183.68 263.54 185.37 266.48 188.07 268.35C203.21 278.84 197.04 300.57 194.19 308.38C198.57 301.4 202.69 292.81 206.09 282.21C207.17 278.85 208.68 275.63 210.82 272.82Z" id="a7ts6U9ZuO"></path><path d="M152.69 278.72C153.36 278.72 158.77 278.72 159.44 278.72C159.44 278.72 157.15 256.4 173.58 242.71C173.58 242.52 173.58 241.53 173.58 239.75L128.14 239.75C143.79 250.1 151.97 263.09 152.69 278.72Z" id="a17Eov6NTN"></path><path d="M61.17 115.68C61.17 119.46 61.17 149.66 61.17 153.43C61.17 153.43 60.53 163.39 53.14 164.04C53.14 164.04 49.64 164.53 46.7 162.58C43.71 160.59 39.75 162.51 39.41 166.09C39.07 169.62 39.42 173.87 41.35 178.53C43.06 182.67 45.88 186.29 49.32 189.17C57.55 196.07 76.34 206.41 106.11 193.27C106.11 186.26 106.11 151.18 106.11 88.04L79.8 88.04C67.38 92.66 61.17 101.87 61.17 115.68Z" id="c6Bsf73SO"></path><path d="M194.93 161.81L194.93 132.47C197.07 132.47 198.25 132.47 198.49 132.47C206.59 132.47 213.16 139.04 213.16 147.14C213.16 147.14 213.16 147.14 213.16 147.14C213.16 155.25 206.59 161.81 198.49 161.81C198.02 161.81 196.83 161.81 194.93 161.81Z" id="a14rDexkCp"></path><path d="M197.96 88.04C197.96 88.04 197.96 88.04 197.96 88.04C197.96 159.02 197.96 198.45 197.96 206.33C197.96 206.33 197.96 206.33 197.96 206.33C140.89 206.33 109.19 206.33 102.85 206.33C102.85 206.33 102.85 206.33 102.85 206.33C102.85 135.36 102.85 95.93 102.85 88.04C102.85 88.04 102.85 88.04 102.85 88.04C159.91 88.04 191.62 88.04 197.96 88.04Z" id="a6E6inx8K"></path><linearGradient id="gradienta1YNsePaF5" gradientUnits="userSpaceOnUse" x1="150.4" y1="181.34" x2="150.4" y2="11.74"><stop style="stop-color: #ffc3b0;stop-opacity: 1" offset="0.51%"></stop><stop style="stop-color: #e8897b;stop-opacity: 1" offset="100%"></stop></linearGradient><path d="M167.03 101.06C173.51 101.06 178.76 106.31 178.76 112.79C178.76 119.03 178.76 150.21 178.76 206.33L197.96 206.33L197.96 88.04L120.93 88.04L120.93 101.06C148.59 101.06 163.96 101.06 167.03 101.06Z" id="dcT3PsJrr"></path><path d="M148.38 115.68C146 115.68 144.07 117.61 144.07 119.99C144.07 122.37 146 124.3 148.38 124.3C150.76 124.3 152.69 122.37 152.69 119.99C152.69 117.61 150.76 115.68 148.38 115.68Z" id="aVI2qCqp"></path><path d="M185.56 115.68C183.18 115.68 181.25 117.61 181.25 119.99C181.25 122.37 183.18 124.3 185.56 124.3C187.94 124.3 189.87 122.37 189.87 119.99C189.87 117.61 187.94 115.68 185.56 115.68Z" id="b1wpGt4jBX"></path><path d="M51.07 190.56C60.06 197.32 78.29 205.55 106.11 193.27C106.11 190.66 106.11 177.59 106.11 154.08L89.44 154.08C63.89 178.4 51.1 190.56 51.07 190.56Z" id="a5W3EXbUTE"></path><path d="M109.6 124.3C109.6 129.03 109.6 166.84 109.6 171.57C109.6 178.28 112.44 184.83 117.74 188.95C120.86 191.37 124.99 193.48 130.35 194.23C132.67 194.56 134.82 192.99 135.42 190.72C137.35 183.35 144.01 167.55 166.01 163.92C173.36 162.7 180.98 163.19 187.91 165.95C196.63 169.42 206.9 177.18 207.32 194.53C207.32 194.53 207.32 194.53 207.32 194.53C207.32 222.84 184.37 245.79 156.06 245.79C155.16 245.79 147.93 245.79 147.03 245.79C118.72 245.79 95.77 222.84 95.77 194.53C95.77 187.43 95.77 151.93 95.77 88.04L124.77 88.04C127.92 105.65 122.86 117.73 109.6 124.3Z" id="f9O5GXtNL"></path><path d="M95.77 161.81L95.77 132.47C93.64 132.47 92.45 132.47 92.21 132.47C84.11 132.47 77.54 139.04 77.54 147.14C77.54 147.14 77.54 147.14 77.54 147.14C77.54 155.25 84.11 161.81 92.21 161.81C92.69 161.81 93.87 161.81 95.77 161.81Z" id="f4g9RcRuUv"></path><path d="M171.87 150.97C169.03 150.97 166.74 148.67 166.74 145.84C166.74 145.84 166.74 145.84 166.74 145.84C166.74 143 169.03 140.7 171.87 140.7C172.73 140.7 179.65 140.7 180.51 140.7C183.35 140.7 185.65 143 185.65 145.84C185.65 145.84 185.65 145.84 185.65 145.84C185.65 148.67 183.35 150.97 180.51 150.97C178.78 150.97 172.73 150.97 171.87 150.97Z" id="bBVLW7DnS"></path><path d="M187.91 165.95C184.96 164.78 181.89 164.04 178.76 163.64C178.86 163.84 200.16 208.23 180.19 239.75C196.33 231.12 207.32 214.11 207.32 194.53C206.89 177.18 196.63 169.42 187.91 165.95Z" id="d1cZbOjMrj"></path><path d="M105.38 33.64C106.14 31.78 107.04 30.27 107.82 29.14C108.87 27.62 108.9 25.63 107.83 24.12C104.77 19.86 101.98 14.98 100.06 11.42C98.96 9.36 96 9.36 94.89 11.42C92.98 14.98 90.18 19.86 87.13 24.12C86.05 25.63 86.08 27.62 87.13 29.14C87.92 30.27 88.81 31.78 89.57 33.64C92.79 41.48 89.8 50.8 82.17 54.49C79.42 55.82 73.72 56.99 69.11 56.99C69.25 58.06 69.96 63.41 71.24 73.04L97.48 73.04L123.71 73.04C125.22 62.72 126.06 56.98 126.23 55.84C121.61 55.84 115.53 55.82 112.78 54.49C105.15 50.8 102.17 41.48 105.38 33.64Z" id="e1EX7hZnSi"></path><path d="M106.11 101.06L106.11 88.04C90.32 88.04 81.56 88.04 79.8 88.04C79.8 88.04 70.39 91.58 64.95 101.06C70.44 101.06 84.16 101.06 106.11 101.06Z" id="aH0BCA2Kw"></path><path d="M124.77 88.04C122.84 88.04 113.17 88.04 95.77 88.04L95.77 101.06L124.83 101.06C124.8 94.12 124.78 89.78 124.77 88.04Z" id="c28wzz4Y2U"></path><path d="M180.53 33.64C181.29 31.78 182.18 30.27 182.97 29.14C184.02 27.62 184.05 25.63 182.97 24.12C179.92 19.86 177.12 14.98 175.21 11.42C174.1 9.36 171.14 9.36 170.04 11.42C168.12 14.98 165.33 19.86 162.27 24.12C161.2 25.63 161.23 27.62 162.28 29.14C163.06 30.27 163.95 31.78 164.71 33.64C167.93 41.48 164.95 50.8 157.32 54.49C154.57 55.82 148.87 56.99 144.25 56.99C144.39 58.06 145.11 63.41 146.39 73.04L172.62 73.04L198.86 73.04C200.37 62.72 201.21 56.98 201.38 55.84C196.76 55.84 190.68 55.82 187.93 54.49C180.3 50.8 177.31 41.48 180.53 33.64Z" id="a165oBaUk4"></path><path d="M195.57 30.53C196.73 32.22 198.08 34.5 199.2 37.31C203.59 48.34 198.94 61.93 188.2 66.98C184.3 68.81 179.28 70.02 172.81 70.02C166.2 70.02 161.1 68.75 157.16 66.85C146.23 61.56 141.96 48.21 146.57 36.98C147.65 34.33 148.94 32.16 150.06 30.54C151.58 28.34 151.57 25.47 150.02 23.29C145.03 16.32 140.53 8.22 137.84 3.08C136.74 0.98 133.74 0.98 132.64 3.08C129.95 8.21 125.46 16.3 120.48 23.27C118.92 25.45 118.9 28.34 120.43 30.55C121.59 32.23 122.93 34.49 124.04 37.29C128.52 48.51 124.17 61.62 113.29 66.86C109.36 68.76 104.26 70.02 97.67 70.02C91.26 70.02 86.27 68.83 82.38 67.02C71.57 61.99 66.88 48.39 71.29 37.31C72.41 34.5 73.75 32.22 74.92 30.53C76.44 28.33 76.42 25.45 74.86 23.27C71.39 18.41 68.15 13.01 65.6 8.44C64.12 5.8 60.09 6.87 60.09 9.9C60.09 17.5 60.09 78.33 60.09 85.93C60.09 90.06 63.44 93.41 67.57 93.41C69.58 93.41 79.61 93.41 97.67 93.41L135.24 93.41L172.81 93.41C190.87 93.41 200.9 93.41 202.91 93.41C207.04 93.41 210.39 90.06 210.39 85.93C210.39 78.33 210.39 17.5 210.39 9.9C210.39 6.87 206.36 5.8 204.88 8.44C202.33 13.01 199.09 18.42 195.62 23.27C194.07 25.45 194.04 28.33 195.57 30.53Z" id="e60EfH8vk"></path><path d="M210.39 85.93C210.39 78.33 210.39 17.5 210.39 9.9C210.39 6.87 206.36 5.8 204.88 8.44C202.33 13.01 199.09 18.42 195.62 23.28C194.07 25.45 194.04 28.33 195.57 30.53C196.73 32.22 198.08 34.5 199.2 37.31C203.59 48.34 198.94 61.93 188.2 66.98C184.3 68.81 179.28 70.02 172.81 70.02C166.2 70.02 161.1 68.75 157.16 66.85C146.23 61.56 141.96 48.21 146.57 36.98C147.65 34.33 148.94 32.16 150.06 30.54C151.58 28.34 151.57 25.47 150.02 23.29C145.03 16.32 140.53 8.22 137.84 3.09C137.29 2.03 136.27 1.5 135.24 1.5C135.24 9.58 135.24 74.21 135.24 82.29C135.24 82.29 134.86 93.41 147.89 93.41C149.55 93.41 157.86 93.41 172.81 93.41L202.91 93.41C207.89 91.18 210.39 88.69 210.39 85.93Z" id="bxsWeytNu"></path><path d="M171.9 292.86C171.9 303.03 164.63 311.26 155.66 311.26C146.7 311.26 139.43 303.03 139.43 292.86C139.43 282.7 146.7 274.47 155.66 274.47C164.63 274.47 171.9 282.7 171.9 292.86Z" id="d7a691VPLN"></path><path d="M155.47 291.11C154.92 294.29 152.19 296.46 149.39 295.97C146.59 295.48 144.77 292.51 145.32 289.33C145.88 286.16 148.6 283.98 151.41 284.47C154.21 284.96 156.03 287.94 155.47 291.11Z" id="hB6F91pYC"></path></defs><g><g><g><use xlink:href="#j7TTDrk0jp" opacity="1" fill="#59e1ff" fill-opacity="1"></use><g><use xlink:href="#j7TTDrk0jp" opacity="1" fill-opacity="0" stroke="#000000" stroke-width="1" stroke-opacity="0"></use></g></g><g><use xlink:href="#b6iDG8Aqu" opacity="1" fill="#30a7ea" fill-opacity="1"></use><g><use xlink:href="#b6iDG8Aqu" opacity="1" fill-opacity="0" stroke="#000000" stroke-width="1" stroke-opacity="0"></use></g></g><g><use xlink:href="#c4NvGXcF" opacity="1" fill="url(#gradientd23uVSug8v)"></use><g><use xlink:href="#c4NvGXcF" opacity="1" fill-opacity="0" stroke="#000000" stroke-width="1" stroke-opacity="0"></use></g></g><g><use xlink:href="#a7ts6U9ZuO" opacity="1" fill="#a03774" fill-opacity="1"></use><g><use xlink:href="#a7ts6U9ZuO" opacity="1" fill-opacity="0" stroke="#000000" stroke-width="1" stroke-opacity="0"></use></g></g><g><use xlink:href="#a17Eov6NTN" opacity="1" fill="#a03774" fill-opacity="1"></use><g><use xlink:href="#a17Eov6NTN" opacity="1" fill-opacity="0" stroke="#000000" stroke-width="1" stroke-opacity="0"></use></g></g><g><use xlink:href="#c6Bsf73SO" opacity="1" fill="#e6e6f8" fill-opacity="1"></use><g><use xlink:href="#c6Bsf73SO" opacity="1" fill-opacity="0" stroke="#000000" stroke-width="1" stroke-opacity="0"></use></g></g><g><use xlink:href="#a14rDexkCp" opacity="1" fill="#c66760" fill-opacity="1"></use><g><use xlink:href="#a14rDexkCp" opacity="1" fill-opacity="0" stroke="#000000" stroke-width="1" stroke-opacity="0"></use></g></g><g><use xlink:href="#a6E6inx8K" opacity="1" fill="url(#gradienta1YNsePaF5)"></use><g><use xlink:href="#a6E6inx8K" opacity="1" fill-opacity="0" stroke="#000000" stroke-width="1" stroke-opacity="0"></use></g></g><g><use xlink:href="#dcT3PsJrr" opacity="1" fill="#e8897b" fill-opacity="1"></use><g><use xlink:href="#dcT3PsJrr" opacity="1" fill-opacity="0" stroke="#000000" stroke-width="1" stroke-opacity="0"></use></g></g><g><use xlink:href="#aVI2qCqp" opacity="1" fill="#333345" fill-opacity="1"></use><g><use xlink:href="#aVI2qCqp" opacity="1" fill-opacity="0" stroke="#000000" stroke-width="1" stroke-opacity="0"></use></g></g><g><use xlink:href="#b1wpGt4jBX" opacity="1" fill="#333345" fill-opacity="1"></use><g><use xlink:href="#b1wpGt4jBX" opacity="1" fill-opacity="0" stroke="#000000" stroke-width="1" stroke-opacity="0"></use></g></g><g><use xlink:href="#a5W3EXbUTE" opacity="1" fill="#b3b3c5" fill-opacity="1"></use><g><use xlink:href="#a5W3EXbUTE" opacity="1" fill-opacity="0" stroke="#000000" stroke-width="1" stroke-opacity="0"></use></g></g><g><use xlink:href="#f9O5GXtNL" opacity="1" fill="#e6e6f8" fill-opacity="1"></use><g><use xlink:href="#f9O5GXtNL" opacity="1" fill-opacity="0" stroke="#000000" stroke-width="1" stroke-opacity="0"></use></g></g><g><use xlink:href="#f4g9RcRuUv" opacity="1" fill="#e8897b" fill-opacity="1"></use><g><use xlink:href="#f4g9RcRuUv" opacity="1" fill-opacity="0" stroke="#000000" stroke-width="1" stroke-opacity="0"></use></g></g><g><use xlink:href="#bBVLW7DnS" opacity="1" fill="#e8897b" fill-opacity="1"></use><g><use xlink:href="#bBVLW7DnS" opacity="1" fill-opacity="0" stroke="#000000" stroke-width="1" stroke-opacity="0"></use></g></g><g><use xlink:href="#d1cZbOjMrj" opacity="1" fill="#b3b3c5" fill-opacity="1"></use><g><use xlink:href="#d1cZbOjMrj" opacity="1" fill-opacity="0" stroke="#000000" stroke-width="1" stroke-opacity="0"></use></g></g><g><use xlink:href="#e1EX7hZnSi" opacity="1" fill="#ad6d2a" fill-opacity="1"></use><g><use xlink:href="#e1EX7hZnSi" opacity="1" fill-opacity="0" stroke="#000000" stroke-width="1" stroke-opacity="0"></use></g></g><g><use xlink:href="#aH0BCA2Kw" opacity="1" fill="#b3b3c5" fill-opacity="1"></use><g><use xlink:href="#aH0BCA2Kw" opacity="1" fill-opacity="0" stroke="#000000" stroke-width="1" stroke-opacity="0"></use></g></g><g><use xlink:href="#c28wzz4Y2U" opacity="1" fill="#b3b3c5" fill-opacity="1"></use><g><use xlink:href="#c28wzz4Y2U" opacity="1" fill-opacity="0" stroke="#000000" stroke-width="1" stroke-opacity="0"></use></g></g><g><use xlink:href="#a165oBaUk4" opacity="1" fill="#ad6d2a" fill-opacity="1"></use><g><use xlink:href="#a165oBaUk4" opacity="1" fill-opacity="0" stroke="#000000" stroke-width="1" stroke-opacity="0"></use></g></g><g><use xlink:href="#e60EfH8vk" opacity="1" fill="#ffca95" fill-opacity="1"></use><g><use xlink:href="#e60EfH8vk" opacity="1" fill-opacity="0" stroke="#000000" stroke-width="1" stroke-opacity="0"></use></g></g><g><use xlink:href="#bxsWeytNu" opacity="1" fill="#fbb04d" fill-opacity="1"></use><g><use xlink:href="#bxsWeytNu" opacity="1" fill-opacity="0" stroke="#000000" stroke-width="1" stroke-opacity="0"></use></g></g><g><use xlink:href="#d7a691VPLN" opacity="1" fill="#fbb04d" fill-opacity="1"></use><g><use xlink:href="#d7a691VPLN" opacity="1" fill-opacity="0" stroke="#000000" stroke-width="1" stroke-opacity="0"></use></g></g><g><use xlink:href="#hB6F91pYC" opacity="1" fill="#ffca95" fill-opacity="1"></use><g><use xlink:href="#hB6F91pYC" opacity="1" fill-opacity="0" stroke="#000000" stroke-width="1" stroke-opacity="0"></use></g></g></g></g></svg>